# xmcd
#
# Track frame offsets: 
#        150
#        22178
#        40855
#        64746
#        94804
#        120561
#        140872
#        172929
#        189290
#        210586
#        232682
#
# Disc length: 3998 seconds
#
# Revision: 0
# Processed by: cddbd v1.5.2PL0 Copyright (c) Steve Scherf et al.
# Submitted via: ExactAudioCopy v1.0b4
#
DISCID=900f9c0b
DTITLE=Kamchatka - Volume II
DYEAR=2007
DGENRE=Hard Rock, Blues Rock
TTITLE0=Who Am I
TTITLE1=Breathe
TTITLE2=Terminus
TTITLE3=Withstand
TTITLE4=From Here
TTITLE5=Enemy Maker
TTITLE6=Heritage
TTITLE7=Sweet Relief
TTITLE8=Pogonophonics
TTITLE9=Feel
TTITLE10=Jigsaw
EXTD=
EXTT0=
EXTT1=
EXTT2=
EXTT3=
EXTT4=
EXTT5=
EXTT6=
EXTT7=
EXTT8=
EXTT9=
EXTT10=
PLAYORDER=
